<svg xmlns="http://www.w3.org/2000/svg" viewBox="0 0 64 64"><g id="CLOUD_SERVER" data-name="CLOUD SERVER"><path d="M31.94,43.83a.56.56,0,0,0,.17.09.6.6,0,0,0,.19.06,1,1,0,1,0,0-2,.6.6,0,0,0-.19.06.56.56,0,0,0-.17.09l-.16.12a1,1,0,0,0,0,1.42Z" id="id_104" style="fill: rgb(255, 255, 255);"></path><path d="M56.07,36.49A3.46,3.46,0,0,0,52.76,39H50.19V35h6.74a1,1,0,0,0,.42-.1c6.15-6.81,1-18.32-8-18.8a14.35,14.35,0,0,0-16.15-4.41C28.52.21,12.08,3.06,11.32,15.4A11.67,11.67,0,0,0,6.25,34.66,1,1,0,0,0,7,35h6.84v4H11.24a3.47,3.47,0,1,0,0,2h3.54a1,1,0,0,0,.73-.29,1,1,0,0,0,.29-.72V35h5.86V48H16.16a3.47,3.47,0,1,0,0,2h6.51a1,1,0,0,0,1-1V35h7.82v5a1,1,0,1,0,2,0V35h6.84s0,14,0,14a1,1,0,0,0,1,1H47.8a3.47,3.47,0,1,0,0-2H42.33V35h5.86v5a1,1,0,0,0,.29.72,1,1,0,0,0,.73.29h3.54a3.47,3.47,0,1,0,3.32-4.48Zm-48.14,5a1.48,1.48,0,0,1,0-3A1.48,1.48,0,0,1,7.93,41.48Zm4.91,9a1.48,1.48,0,0,1,0-3A1.48,1.48,0,0,1,12.84,50.47Zm38.27-3a1.48,1.48,0,0,1,0,3A1.48,1.48,0,0,1,51.11,47.51ZM5,26.56a9.56,9.56,0,0,1,7.51-9.39A1,1,0,0,0,13.3,16a9.36,9.36,0,0,1,18.38-2.71,1,1,0,0,0,.55.63,1,1,0,0,0,.84,0,12,12,0,0,1,5.19-1.16,12.31,12.31,0,0,1,9.83,4.9,1,1,0,0,0,.77.39c7.29.09,11.72,8.9,7.55,14.93h-49A9.57,9.57,0,0,1,5,26.56ZM56.07,41.45a1.48,1.48,0,0,1,0-3A1.48,1.48,0,0,1,56.07,41.45Z" id="id_105" style="fill: rgb(255, 255, 255);"></path><path d="M42.62,51.52A3.47,3.47,0,0,0,39.3,54H33.49V46a1,1,0,0,0-2,0v8H26a3.47,3.47,0,1,0,0,2H39.31a3.47,3.47,0,1,0,3.31-4.48ZM22.67,56.47a1.48,1.48,0,0,1,0-2.95A1.48,1.48,0,0,1,22.67,56.47Zm19.95,0a1.48,1.48,0,0,1,0-2.95A1.48,1.48,0,0,1,42.62,56.47Z" id="id_106" style="fill: rgb(255, 255, 255);"></path></g></svg>