<svg id="Layer_1" data-name="Layer 1" xmlns="http://www.w3.org/2000/svg" viewBox="0 0 64 64"><path d="M26.949,42.316A1,1,0,0,0,26.6,41.2l-4-3-1.2,1.6L23,41H15v2H26A1,1,0,0,0,26.949,42.316Z" id="id_101" style="fill: rgb(255, 255, 255);"></path><path d="M19.4,49.8l1.2-1.6L19,47h8V45H16a1,1,0,0,0-.6,1.8Z" id="id_102" style="fill: rgb(255, 255, 255);"></path><path d="M55.857,30.316a1,1,0,0,0-.348-1.116l-4-3-1.2,1.6,1.6,1.2h-8v2h11A1,1,0,0,0,55.857,30.316Z" id="id_103" style="fill: rgb(255, 255, 255);"></path><path d="M48.309,37.8l1.2-1.6-1.6-1.2h8V33h-11a1,1,0,0,0-.6,1.8Z" id="id_104" style="fill: rgb(255, 255, 255);"></path><path d="M28.1,15.2l-1.2,1.6L28.5,18h-8v2h11a1,1,0,0,0,.6-1.8Z" id="id_105" style="fill: rgb(255, 255, 255);"></path><path d="M20.551,22.684A1,1,0,0,0,20.9,23.8l4,3,1.2-1.6L24.5,24h8V22h-11A1,1,0,0,0,20.551,22.684Z" id="id_106" style="fill: rgb(255, 255, 255);"></path><path d="M26.5,6H7A1,1,0,0,0,6,7V21H8V8H26.5Z" id="id_107" style="fill: rgb(255, 255, 255);"></path><path d="M59,11H51V5a3,3,0,0,0-3-3H5A3,3,0,0,0,2,5V37a3,3,0,0,0,3,3H6V52.555L3.414,60.7A1,1,0,0,0,4.367,62H37.633a1,1,0,0,0,.953-1.3L36,52.555V40h2V50a3,3,0,0,0,3,3H59a3,3,0,0,0,3-3V14A3,3,0,0,0,59,11ZM34,52H8V36H34Zm4-38V38H36V35a1,1,0,0,0-1-1H7a1,1,0,0,0-1,1v3H5a1,1,0,0,1-1-1V5A1,1,0,0,1,5,4H48a1,1,0,0,1,1,1v6H41A3,3,0,0,0,38,14ZM60,49H40V15H60Z" id="id_108" style="fill: rgb(255, 255, 255);"></path></svg>