<?xml version="1.0" standalone="no"?>
<!DOCTYPE svg PUBLIC "-//W3C//DTD SVG 20010904//EN"
 "http://www.w3.org/TR/2001/REC-SVG-20010904/DTD/svg10.dtd">
<svg version="1.0" xmlns="http://www.w3.org/2000/svg"
 width="200.000000pt" height="200.000000pt" viewBox="0 0 200.000000 200.000000"
 preserveAspectRatio="xMidYMid meet">
<metadata>
Created by potrace 1.14, written by Peter Selinger 2001-2017
</metadata>
<g transform="translate(0.000000,200.000000) scale(0.100000,-0.100000)"
fill="#000000" stroke="none">
<path d="M0 1000 l0 -1000 1000 0 1000 0 0 1000 0 1000 -1000 0 -1000 0 0
-1000z m942 823 l58 -57 58 57 c32 31 64 57 72 57 20 0 110 -91 110 -110 0
-22 -217 -250 -238 -250 -18 0 -252 228 -252 245 0 15 103 115 119 115 9 0 41
-26 73 -57z m-125 -301 c95 -92 177 -168 182 -170 4 -1 82 74 173 167 168 173
196 193 245 175 13 -5 136 -121 273 -259 l250 -249 -32 -33 -32 -33 -78 77
-79 78 -337 -343 -337 -343 -45 1 -44 0 -336 335 c-184 184 -340 335 -345 335
-6 0 -42 -31 -80 -70 l-69 -70 -33 32 -32 31 237 244 c130 135 251 251 267
259 17 7 41 11 54 8 13 -3 102 -80 198 -172z m-42 -1072 c0 -20 -5 -25 -25
-25 -20 0 -26 6 -28 28 -3 26 -1 28 25 25 22 -2 28 -8 28 -28z m515 0 c0 -25
-4 -30 -25 -30 -14 0 -28 7 -31 15 -10 25 4 45 31 45 21 0 25 -5 25 -30z
m-829 -40 c4 -14 22 -78 40 -143 17 -65 33 -116 36 -114 2 3 21 67 42 143 32
121 40 139 59 142 13 2 22 -2 22 -10 0 -7 -19 -82 -42 -165 l-43 -153 -40 0
-40 0 -43 158 c-24 86 -43 161 -42 165 1 20 44 0 51 -23z m479 -5 c0 -31 3
-35 25 -35 16 0 25 -6 25 -15 0 -9 -9 -15 -25 -15 l-25 0 0 -100 c0 -94 1
-100 20 -100 18 0 19 -3 10 -20 -11 -20 -35 -25 -64 -14 -13 5 -16 25 -16 120
0 107 -1 114 -20 114 -11 0 -20 7 -20 15 0 8 9 15 20 15 15 0 20 7 20 29 0 27
8 34 43 40 4 0 7 -15 7 -34z m-170 -165 l0 -130 -25 0 -25 0 0 123 c0 68 3
127 7 130 3 4 15 7 25 7 17 0 18 -11 18 -130z m323 109 l6 -21 29 21 c38 26
52 27 52 1 0 -13 -12 -26 -35 -37 l-35 -17 0 -93 c0 -93 0 -93 -25 -93 l-25 0
0 130 c0 104 3 130 14 130 7 0 16 -10 19 -21z m197 -109 l0 -130 -25 0 -25 0
0 130 0 130 25 0 25 0 0 -130z m146 93 c16 -21 31 -42 35 -46 3 -5 19 12 35
37 23 37 35 46 57 46 l27 0 -44 -67 -45 -67 45 -63 45 -63 -28 0 c-22 0 -35
10 -58 45 -16 25 -32 45 -35 45 -3 0 -17 -20 -32 -45 -22 -35 -33 -45 -54 -45
l-26 0 17 28 c10 15 29 43 42 62 12 19 23 38 23 43 0 4 -18 35 -40 68 -41 59
-41 59 -16 59 17 0 33 -12 52 -37z"/>
<path d="M827 1812 c-20 -21 -37 -42 -37 -48 0 -5 47 -56 104 -113 l105 -105
96 95 c53 52 101 102 107 113 8 15 3 26 -31 60 l-41 41 -58 -58 c-32 -31 -64
-57 -73 -57 -8 0 -39 25 -69 55 -30 30 -57 55 -60 55 -3 0 -23 -17 -43 -38z"/>
<path d="M1205 1420 c-183 -181 -193 -187 -253 -156 -15 8 -94 82 -177 165
-95 96 -157 151 -170 151 -27 0 -245 -218 -245 -245 0 -28 608 -635 636 -635
23 0 644 617 644 640 0 18 -231 250 -250 250 -7 0 -91 -76 -185 -170z"/>
</g>
</svg>
