<svg xmlns="http://www.w3.org/2000/svg" viewBox="0 0 32 32"><title>Game</title><g id="Game"><path d="M29.921,20.836l-1.5-8.987A6.978,6.978,0,0,0,21.519,6H10.481a6.978,6.978,0,0,0-6.9,5.849l-1.5,8.987a4.435,4.435,0,0,0,8.178,3.011L11.965,21h8.07l1.708,2.847a4.435,4.435,0,0,0,8.178-3.011Zm-2.517,2.3a2.435,2.435,0,0,1-3.946-.322l-2-3.332A1,1,0,0,0,20.6,19H11.4a1,1,0,0,0-.857.485l-2,3.332a2.435,2.435,0,0,1-4.49-1.653l1.5-8.986A4.985,4.985,0,0,1,10.481,8H21.519a4.985,4.985,0,0,1,4.932,4.178l1.5,8.986A2.43,2.43,0,0,1,27.4,23.139Z" id="id_101" style="fill: rgb(255, 255, 255);"></path><path d="M13,13H12V12a1,1,0,0,0-2,0v1H9a1,1,0,0,0,0,2h1v1a1,1,0,0,0,2,0V15h1a1,1,0,0,0,0-2Z" id="id_102" style="fill: rgb(255, 255, 255);"></path><circle cx="21" cy="12" r="1" id="id_103" style="fill: rgb(255, 255, 255);"></circle><circle cx="21" cy="16" r="1" id="id_104" style="fill: rgb(255, 255, 255);"></circle><circle cx="23" cy="14" r="1" id="id_105" style="fill: rgb(255, 255, 255);"></circle><circle cx="19" cy="14" r="1" id="id_106" style="fill: rgb(255, 255, 255);"></circle></g></svg>