# Blender v2.93.3 OBJ File: 'ammo_pack.blend'
# www.blender.org
mtllib ammo_pack.mtl
o Cube
v 1.000000 -0.000000 -1.308975
v 1.000000 -0.000000 1.308975
v -1.000000 -0.000000 1.308975
v -1.000000 -0.000000 -1.308975
v 1.000000 2.000000 -1.308974
v 0.999999 2.000000 1.308976
v -1.000000 2.000000 1.308974
v -1.000000 2.000000 -1.308975
v 0.999999 3.410614 1.308976
v 1.000000 3.410614 -1.308974
vt 0.409310 0.440560
vt 0.218327 0.440560
vt 0.218326 0.249577
vt 0.409309 0.249577
vt 0.409310 0.631543
vt 0.218327 0.631543
vt 0.027344 0.631543
vt 0.027344 0.440560
vt 0.218326 0.058594
vt 0.409309 0.058594
vt 0.600292 0.440560
vt 0.600293 0.631543
vt 0.214750 0.628797
vt 0.214750 0.818949
vt 0.030090 0.818949
vt 0.030090 0.628797
vt 0.987129 0.078327
vt 0.987130 0.398861
vt 0.567558 0.398861
vt 0.567558 0.078327
vn 0.0000 -1.0000 0.0000
vn 1.0000 0.0000 0.0000
vn -0.0000 -0.0000 1.0000
vn -1.0000 -0.0000 -0.0000
vn 0.0000 0.0000 -1.0000
vn -0.5764 0.8172 -0.0000
vn 0.0000 1.0000 0.0000
usemtl Material
s off
f 1/1/1 2/2/1 3/3/1 4/4/1
f 1/1/2 5/5/2 6/6/2 2/2/2
f 2/2/3 6/6/3 7/7/3 3/8/3
f 3/3/4 7/9/4 8/10/4 4/4/4
f 5/5/5 1/1/5 4/11/5 8/12/5
f 10/13/6 8/14/6 7/15/6 9/16/6
f 5/17/7 8/18/7 7/19/7 6/20/7
