# Blender v3.1.2 OBJ File: 'axe.blend'
# www.blender.org
mtllib axe.mtl
o Cube
v 0.299318 1.414116 0.203179
v 0.299318 -2.952361 0.203179
v 0.299318 1.414116 -0.203179
v 0.299318 -2.952361 -0.203179
v -0.299318 1.414116 0.203179
v -0.299318 -2.952361 0.203179
v -0.299318 1.414116 -0.203179
v -0.299318 -2.952361 -0.203179
vt 0.625000 0.500000
vt 0.625000 0.750000
vt 0.875000 0.750000
vt 0.875000 0.500000
vt 0.375000 0.750000
vt 0.375000 1.000000
vt 0.625000 1.000000
vt 0.375000 0.000000
vt 0.375000 0.250000
vt 0.625000 0.250000
vt 0.625000 0.000000
vt 0.125000 0.500000
vt 0.125000 0.750000
vt 0.375000 0.500000
vn 0.0000 1.0000 0.0000
vn 0.0000 0.0000 -1.0000
vn -1.0000 0.0000 0.0000
vn 0.0000 -1.0000 0.0000
vn 1.0000 0.0000 0.0000
vn 0.0000 0.0000 1.0000
usemtl Material
s off
f 1/1/1 3/2/1 7/3/1 5/4/1
f 4/5/2 8/6/2 7/7/2 3/2/2
f 8/8/3 6/9/3 5/10/3 7/11/3
f 6/12/4 8/13/4 4/5/4 2/14/4
f 2/14/5 4/5/5 3/2/5 1/1/5
f 6/9/6 2/14/6 1/1/6 5/10/6
o Cube.001
v -0.303861 1.400303 0.187779
v -0.303861 1.400303 -0.187779
v -0.304669 3.124385 0.187779
v -0.304669 3.124385 -0.187779
v 1.384939 1.401095 0.187779
v 1.384130 3.125177 -0.187779
v 1.384939 1.401095 -0.187779
v 1.384130 3.125177 0.187779
v 2.228530 3.125573 -0.187779
v 2.229338 1.401491 0.187779
v 2.229338 1.401491 -0.187779
v 2.228530 3.125573 0.187779
v 2.264142 1.401507 0.187779
v 3.073545 1.815142 0.097759
v 2.264142 1.401507 -0.187779
v 3.073545 1.815142 -0.097759
v 3.073123 2.712713 0.097759
v 2.263334 3.125589 0.187779
v 3.073123 2.712713 -0.097759
v 2.263334 3.125589 -0.187779
vt 0.562500 0.250000
vt 0.562500 0.500000
vt 0.565076 0.500000
vt 0.565076 0.250000
vt 0.562500 0.000000
vt 0.565076 0.000000
vt 0.125000 0.500000
vt 0.125000 0.750000
vt 0.375000 0.750000
vt 0.375000 0.500000
vt 0.684924 0.559924
vt 0.684924 0.690076
vt 0.815076 0.690076
vt 0.815076 0.559924
vt 0.562500 0.750000
vt 0.562500 1.000000
vt 0.565076 1.000000
vt 0.565076 0.750000
vt 0.375000 0.250000
vt 0.500000 0.500000
vt 0.500000 0.250000
vt 0.500000 0.750000
vt 0.375000 0.000000
vt 0.500000 0.000000
vt 0.375000 1.000000
vt 0.500000 1.000000
vt 0.625000 0.750000
vt 0.875000 0.750000
vt 0.875000 0.500000
vt 0.625000 0.500000
vn -0.0000 0.0000 1.0000
vn -0.0005 1.0000 0.0000
vn -1.0000 -0.0005 0.0000
vn 1.0000 0.0005 0.0000
vn -0.0000 0.0000 -1.0000
vn 0.0005 -1.0000 0.0000
vn 0.1105 0.0001 -0.9939
vn 0.4551 -0.8905 0.0000
vn 0.4542 0.8909 0.0000
vn 0.1105 0.0001 0.9939
usemtl Material.001
s off
f 20/15/7 18/16/7 21/17/7 26/18/7
f 17/19/8 20/15/8 26/18/8 28/20/8
f 11/21/9 12/22/9 10/23/9 9/24/9
f 22/25/10 24/26/10 27/27/10 25/28/10
f 19/29/11 17/30/11 28/31/11 23/32/11
f 11/33/7 9/24/7 13/34/7 16/35/7
f 9/24/12 10/23/12 15/36/12 13/34/12
f 12/37/8 11/33/8 16/35/8 14/38/8
f 10/23/11 12/39/11 14/40/11 15/36/11
f 16/35/7 13/34/7 18/16/7 20/15/7
f 13/34/12 15/36/12 19/29/12 18/16/12
f 14/38/8 16/35/8 20/15/8 17/19/8
f 15/36/11 14/40/11 17/30/11 19/29/11
f 24/26/13 23/41/13 28/42/13 27/27/13
f 22/25/14 21/17/14 23/32/14 24/26/14
f 27/27/15 28/42/15 26/43/15 25/28/15
f 25/28/16 26/43/16 21/44/16 22/25/16
f 18/16/12 19/29/12 23/32/12 21/17/12
