# Blender v3.1.2 OBJ File: ''
# www.blender.org
mtllib bullet2.mtl
o Cube_Cube.003
v -1.000000 -1.000000 0.985710
v -1.000000 -1.000000 1.000000
v -1.000000 1.000000 0.985710
v -1.000000 1.000000 1.000000
v 1.000000 -1.000000 0.985710
v 1.000000 -1.000000 1.000000
v 1.000000 1.000000 0.985710
v 1.000000 1.000000 1.000000
vt 0.970576 0.525406
vt 0.976156 0.525469
vt 0.976156 0.872597
vt 0.970576 0.872535
vt 0.964752 0.525406
vt 0.970332 0.525469
vt 0.970332 0.872598
vt 0.964752 0.872535
vt 0.964508 0.872597
vt 0.958928 0.872535
vt 0.958928 0.525406
vt 0.964508 0.525469
vt 0.958684 0.872598
vt 0.953104 0.872535
vt 0.953104 0.525406
vt 0.958684 0.525469
vt 0.002093 0.997718
vt 0.002093 0.000516
vt 1.001123 -0.004719
vt 0.994692 0.999463
vt 0.001184 0.998705
vt 0.002792 0.001275
vt 0.998816 -0.005706
vt 0.995601 0.998705
vn -1.0000 0.0000 0.0000
vn 0.0000 1.0000 0.0000
vn 1.0000 0.0000 0.0000
vn 0.0000 -1.0000 0.0000
vn 0.0000 0.0000 -1.0000
vn 0.0000 -0.0000 1.0000
usemtl Material.003
s off
f 1/1/1 2/2/1 4/3/1 3/4/1
f 3/5/2 4/6/2 8/7/2 7/8/2
f 7/9/3 8/10/3 6/11/3 5/12/3
f 5/13/4 6/14/4 2/15/4 1/16/4
f 3/17/5 7/18/5 5/19/5 1/20/5
f 8/21/6 4/22/6 2/23/6 6/24/6
