# Blender v2.93.3 OBJ File: ''
# www.blender.org
mtllib hammer.mtl
o Cube.001
v -1.016013 -0.983726 -1.000000
v 0.983726 -1.016013 -1.000000
v 0.983726 -1.016013 1.000000
v -1.016013 -0.983726 1.000000
v -0.983726 1.016013 1.000000
v 1.016013 0.983726 1.000000
v 1.016013 0.983726 -1.000000
v -0.983726 1.016013 -1.000000
v -1.012005 -0.735502 -0.751743
v -1.012005 -0.735502 0.751743
v -3.718941 -0.691796 0.751743
v -3.718941 -0.691797 -0.751743
v -0.987734 0.767789 -0.751743
v -0.987734 0.767789 0.751743
v -3.694669 0.811494 0.751743
v -3.694669 0.811494 -0.751743
v -4.409443 0.823034 -0.751743
v -4.409443 0.823034 0.751743
v -1.467904 -0.264639 -0.751743
v -3.248080 -0.235897 -0.751743
v -3.248080 -0.235897 -0.212589
v -1.467904 -0.264639 -0.212589
v -5.526704 0.361255 -1.004059
v -5.882639 0.387459 1.047314
v -1.458596 0.311889 -0.751743
v -3.238771 0.340631 -0.751743
v -3.175799 0.275593 -0.212589
v -1.523634 0.248918 -0.212589
v -1.750746 0.813772 -10.501792
v -3.363140 1.119920 -11.250827
v -1.458596 0.311889 -0.212589
v -3.238771 0.340631 -0.212589
v -1.530876 -0.199601 -0.212589
v -3.183040 -0.172926 -0.212589
v -1.778032 -0.275474 -10.598185
v -3.465099 -0.149491 -11.270542
vt 0.625000 0.500000
vt 0.875000 0.500000
vt 0.875000 0.750000
vt 0.625000 0.750000
vt 0.375000 0.750000
vt 0.625000 1.000000
vt 0.375000 1.000000
vt 0.375000 0.000000
vt 0.625000 0.000000
vt 0.625000 0.250000
vt 0.375000 0.250000
vt 0.125000 0.500000
vt 0.375000 0.500000
vt 0.125000 0.750000
vt 0.593968 0.531032
vt 0.593968 0.718968
vt 0.593968 0.718968
vt 0.593968 0.531032
vt 0.406032 0.531032
vt 0.406032 0.718968
vt 0.406032 0.718968
vt 0.406032 0.531032
vt 0.406032 0.531032
vt 0.406032 0.718968
vt 0.536038 0.531032
vt 0.536038 0.531032
vt 0.536038 0.531032
vt 0.536038 0.531032
vt 0.593968 0.531032
vt 0.593968 0.718968
vt 0.463962 0.531032
vt 0.463962 0.531032
vt 0.471964 0.531032
vt 0.471964 0.531032
vt 0.471964 0.531032
vt 0.471964 0.531032
vt 0.463962 0.531032
vt 0.463962 0.531032
vt 0.528036 0.531032
vt 0.528036 0.531032
vt 0.528036 0.531032
vt 0.528036 0.531032
vn -0.0161 -0.9999 0.0000
vn 0.0000 0.0000 1.0000
vn 0.9999 -0.0161 0.0000
vn 0.0161 0.9999 -0.0000
vn 0.0000 -0.0000 -1.0000
vn -0.9999 0.0161 -0.0000
vn -0.3277 0.9440 -0.0398
vn 0.1230 0.0561 0.9908
vn -0.4730 -0.8801 -0.0409
vn 0.1227 0.0559 -0.9909
vn 0.0867 0.9942 0.0640
vn 0.3981 0.0233 -0.9170
vn -0.9977 0.0631 0.0237
vn -0.0464 -0.9989 0.0036
vn 0.9995 -0.0210 -0.0234
usemtl Material.001
s 1
f 1/1/1 2/2/1 3/3/1 4/4/1
f 5/5/2 4/4/2 3/6/2 6/7/2
f 6/8/3 3/9/3 2/10/3 7/11/3
f 7/12/4 8/13/4 5/5/4 6/14/4
f 9/15/1 10/16/1 11/17/1 12/18/1
f 7/11/5 2/10/5 1/1/5 8/13/5
f 9/15/6 13/19/6 8/13/6 1/1/6
f 14/20/6 10/16/6 4/4/6 5/5/6
f 10/16/6 9/15/6 1/1/6 4/4/6
f 13/19/6 14/20/6 5/5/6 8/13/6
f 15/21/4 16/22/4 17/23/4 18/24/4
f 19/25/4 20/26/4 21/27/4 22/28/4
f 14/20/4 13/19/4 16/22/4 15/21/4
f 10/16/2 14/20/2 15/21/2 11/17/2
f 17/23/7 23/29/7 24/30/7 18/24/7
f 11/17/8 15/21/8 18/24/8 24/30/8
f 12/18/9 11/17/9 24/30/9 23/29/9
f 16/22/10 12/18/10 23/29/10 17/23/10
f 19/25/5 25/31/5 13/19/5 9/15/5
f 26/32/5 20/26/5 12/18/5 16/22/5
f 20/26/5 19/25/5 9/15/5 12/18/5
f 25/31/5 26/32/5 16/22/5 13/19/5
f 27/33/11 28/34/11 29/35/11 30/36/11
f 25/31/6 19/25/6 22/28/6 31/37/6
f 26/32/1 25/31/1 31/37/1 32/38/1
f 20/26/3 26/32/3 32/38/3 21/27/3
f 33/39/5 28/34/5 31/37/5 22/28/5
f 27/33/5 34/40/5 21/27/5 32/38/5
f 34/40/5 33/39/5 22/28/5 21/27/5
f 28/34/5 27/33/5 32/38/5 31/37/5
f 29/35/12 35/41/12 36/42/12 30/36/12
f 34/40/13 27/33/13 30/36/13 36/42/13
f 33/39/14 34/40/14 36/42/14 35/41/14
f 28/34/15 33/39/15 35/41/15 29/35/15
