# Blender v2.93.6 OBJ File: ''
# www.blender.org
mtllib hammer.mtl
o Cube.001
v -1.016013 -0.983726 -1.000000
v 0.983726 -1.016013 -1.000000
v 0.983726 -1.016013 1.000000
v -1.016013 -0.983726 1.000000
v -0.983726 1.016013 1.000000
v 1.016013 0.983726 1.000000
v 1.016013 0.983726 -1.000000
v -0.983726 1.016013 -1.000000
v -1.012005 -0.735502 -0.751743
v -1.012005 -0.735502 0.751743
v -3.718941 -0.691796 0.751743
v -3.718941 -0.691797 -0.751743
v -0.987734 0.767789 -0.751743
v -0.987734 0.767789 0.751743
v -3.694669 0.811494 0.751743
v -3.694669 0.811494 -0.751743
v -4.409443 0.823034 -0.751743
v -4.409443 0.823034 0.751743
v -1.467904 -0.264639 -0.751743
v -3.248080 -0.235897 -0.751743
v -3.248080 -0.235897 -0.212589
v -1.467904 -0.264639 -0.212589
v -5.526704 0.361255 -1.004059
v -5.882639 0.387459 1.047314
v -1.458596 0.311889 -0.751743
v -3.238771 0.340631 -0.751743
v -3.175799 0.275593 -0.212589
v -1.523634 0.248918 -0.212589
v -1.750746 0.813774 -10.501792
v -3.363140 1.119922 -11.250827
v -1.458596 0.311889 -0.212589
v -3.238771 0.340631 -0.212589
v -1.530876 -0.199601 -0.212589
v -3.183040 -0.172926 -0.212589
v -1.778032 -0.275472 -10.598185
v -3.465099 -0.149489 -11.270542
vt 0.970296 0.329241
vt 0.821547 0.329354
vt 0.821547 0.179866
vt 0.970296 0.179753
vt 0.821512 0.551139
vt 0.821512 0.401676
vt 0.970880 0.401557
vt 0.970880 0.551021
vt 0.665009 0.788271
vt 0.665011 0.937762
vt 0.515524 0.937762
vt 0.515522 0.788271
vt 0.970881 0.159569
vt 0.821547 0.159597
vt 0.821547 0.010106
vt 0.970881 0.010078
vt 0.649676 0.381401
vt 0.537300 0.381401
vt 0.537147 0.180048
vt 0.649523 0.180048
vt 0.821512 0.720783
vt 0.821512 0.571296
vt 0.970835 0.571353
vt 0.970835 0.720840
vt 0.819929 0.806300
vt 0.707553 0.806297
vt 0.688997 0.787740
vt 0.838485 0.787745
vt 0.707553 0.918675
vt 0.819929 0.918679
vt 0.838485 0.937235
vt 0.688997 0.937230
vt 0.646639 0.565968
vt 0.534260 0.565968
vt 0.534250 0.512591
vt 0.646629 0.512591
vt 0.339075 0.856773
vt 0.339075 0.989712
vt 0.298776 0.989704
vt 0.298776 0.856766
vt 0.646677 0.768114
vt 0.534298 0.768114
vt 0.801356 0.767583
vt 0.688998 0.767494
vt 0.688998 0.565304
vt 0.801356 0.565393
vt 0.515522 0.428092
vt 0.668841 0.401557
vt 0.688998 0.511915
vt 0.723751 0.401557
vt 0.515522 0.010078
vt 0.668857 0.036731
vt 0.689014 0.212251
vt 0.801390 0.212208
vt 0.725024 0.349356
vt 0.689014 0.265624
vt 0.766751 0.044693
vt 0.723653 0.044709
vt 0.689014 0.010121
vt 0.801390 0.010078
vt 0.723653 0.177637
vt 0.766751 0.177620
vt 0.278619 0.835483
vt 0.155254 0.837317
vt 0.159669 0.067926
vt 0.278619 0.010078
vt 0.215709 0.900573
vt 0.215709 0.857475
vt 0.256008 0.857474
vt 0.256008 0.900571
vt 0.155254 0.989891
vt 0.155254 0.857474
vt 0.195552 0.857505
vt 0.195552 0.989922
vt 0.010078 0.903161
vt 0.010078 0.860062
vt 0.050377 0.860063
vt 0.050377 0.903161
vt 0.418768 0.935080
vt 0.452296 0.935067
vt 0.457080 0.939845
vt 0.413983 0.939861
vt 0.452296 0.811698
vt 0.418768 0.811711
vt 0.413983 0.806934
vt 0.457080 0.806917
vt 0.872405 0.791124
vt 0.953836 0.787740
vt 0.953836 0.916416
vt 0.858641 0.915461
vt 0.310530 0.010078
vt 0.344054 0.010607
vt 0.393826 0.836609
vt 0.298776 0.836609
vt 0.012240 0.010078
vt 0.135097 0.013128
vt 0.135097 0.839906
vt 0.010078 0.786476
vt 0.461837 0.010078
vt 0.495365 0.010337
vt 0.495365 0.786760
vt 0.413983 0.778922
vn -0.0161 -0.9999 -0.0000
vn 0.0000 -0.0000 1.0000
vn 0.9999 -0.0161 -0.0000
vn 0.0161 0.9999 0.0000
vn 0.0000 0.0000 -1.0000
vn -0.9999 0.0161 0.0000
vn -0.3277 0.9440 -0.0398
vn 0.1230 0.0561 0.9908
vn -0.4730 -0.8801 -0.0409
vn 0.1227 0.0559 -0.9909
vn 0.0867 0.9942 0.0640
vn 0.3981 0.0233 -0.9170
vn -0.9977 0.0631 0.0237
vn -0.0464 -0.9989 0.0036
vn 0.9995 -0.0210 -0.0234
usemtl Material.001
s 1
f 1/1/1 2/2/1 3/3/1 4/4/1
f 5/5/2 4/6/2 3/7/2 6/8/2
f 6/9/3 3/10/3 2/11/3 7/12/3
f 7/13/4 8/14/4 5/15/4 6/16/4
f 9/17/1 10/18/1 11/19/1 12/20/1
f 7/21/5 2/22/5 1/23/5 8/24/5
f 9/25/6 13/26/6 8/27/6 1/28/6
f 14/29/6 10/30/6 4/31/6 5/32/6
f 10/30/6 9/25/6 1/28/6 4/31/6
f 13/26/6 14/29/6 5/32/6 8/27/6
f 15/33/4 16/34/4 17/35/4 18/36/4
f 19/37/4 20/38/4 21/39/4 22/40/4
f 14/41/4 13/42/4 16/34/4 15/33/4
f 10/43/2 14/44/2 15/45/2 11/46/2
f 17/35/7 23/47/7 24/48/7 18/36/7
f 11/46/8 15/45/8 18/49/8 24/50/8
f 12/20/9 11/19/9 24/51/9 23/52/9
f 16/53/10 12/54/10 23/55/10 17/56/10
f 19/57/5 25/58/5 13/59/5 9/60/5
f 26/61/5 20/62/5 12/54/5 16/53/5
f 20/62/5 19/57/5 9/60/5 12/54/5
f 25/58/5 26/61/5 16/53/5 13/59/5
f 27/63/11 28/64/11 29/65/11 30/66/11
f 25/67/6 19/68/6 22/69/6 31/70/6
f 26/71/1 25/72/1 31/73/1 32/74/1
f 20/75/3 26/76/3 32/77/3 21/78/3
f 33/79/5 28/80/5 31/81/5 22/82/5
f 27/83/5 34/84/5 21/85/5 32/86/5
f 34/84/5 33/79/5 22/82/5 21/85/5
f 28/80/5 27/83/5 32/86/5 31/81/5
f 29/87/12 35/88/12 36/89/12 30/90/12
f 34/91/13 27/92/13 30/93/13 36/94/13
f 33/95/14 34/96/14 36/97/14 35/98/14
f 28/99/15 33/100/15 35/101/15 29/102/15
