# Blender v3.1.2 OBJ File: ''
# www.blender.org
mtllib pistol.mtl
o Plane
v -1.000000 0.000000 -0.551971
v -1.000000 -0.201108 -0.798892
v 1.000000 0.000000 -1.000000
v 1.000000 0.000000 -0.551971
v -11.000000 0.000000 -0.551971
v -10.953284 -0.187993 -0.791757
v -12.283841 -0.170787 0.160630
v -12.659242 -0.211910 0.005339
v 1.000000 -0.000000 0.530387
v 2.000000 -0.000000 0.530387
v 2.000000 -0.000000 1.000000
v 1.000000 -0.000000 1.000000
v 1.000000 0.000000 -2.000000
v 2.000000 0.000000 -2.000000
v 2.000000 0.000000 -1.000000
v 2.000000 -0.000000 2.000000
v 1.000000 -0.000000 2.000000
v -1.000000 -0.536885 -0.551971
v 1.000000 -0.536885 -0.551971
v 1.000000 -0.536885 -1.000000
v -1.000000 -0.335777 -0.798892
v -10.953284 -0.348892 -0.791757
v -11.000000 -0.536885 -0.551971
v -12.283841 -0.366098 0.160630
v -12.659242 -0.324974 0.005339
v 1.000000 -0.536885 0.530387
v 1.000000 -0.536885 1.000000
v 2.000000 -0.536885 1.000000
v 2.000000 -0.536885 0.530387
v 2.000000 -0.536885 -1.000000
v 2.000000 -0.536885 -2.000000
v 1.000000 -0.536885 -2.000000
v 1.000000 -0.536885 2.000000
v 2.000000 -0.536885 2.000000
v -10.945171 -0.198715 0.778545
v -1.000000 -0.213935 0.786065
v -1.000000 -0.322950 0.786065
v -10.945171 -0.338170 0.778545
v 2.000000 0.000000 -0.551971
v 2.000000 -0.536885 -0.551971
v -1.000000 -0.536885 0.530387
v -11.000000 -0.536885 0.530387
v -11.000000 -0.000000 0.530387
v -1.000000 -0.000000 0.530387
vt 0.000000 0.775986
vt 0.000000 1.000000
vt 1.000000 1.000000
vt 1.000000 0.775986
vt 0.000000 0.775985
vt 0.000000 1.000000
vt 0.000000 0.707245
vt 0.000000 1.000000
vt 1.000000 0.234807
vt 1.000000 0.234807
vt 1.000000 0.000000
vt 1.000000 0.000000
vt 1.000000 1.000000
vt 1.000000 1.000000
vt 1.000000 1.000000
vt 1.000000 0.000000
vt 1.000000 0.000000
vt 0.000000 0.775986
vt 1.000000 0.775986
vt 1.000000 1.000000
vt 0.000000 1.000000
vt 0.000000 1.000000
vt 0.000000 0.775985
vt 0.000000 0.707245
vt 0.000000 1.000000
vt 1.000000 0.234807
vt 1.000000 0.000000
vt 1.000000 0.000000
vt 1.000000 0.234807
vt 1.000000 1.000000
vt 1.000000 1.000000
vt 1.000000 1.000000
vt 1.000000 0.000000
vt 1.000000 0.000000
vt 0.000000 0.000000
vt 0.000000 0.000000
vt 0.000000 0.000000
vt 0.000000 0.000000
vt 1.000000 0.775986
vt 1.000000 0.775986
vt 0.000000 0.234807
vt 0.000000 0.234807
vt 0.000000 0.234807
vt 0.000000 0.234807
vn 0.0622 -0.9587 0.2774
vn -0.0003 -0.7811 0.6244
vn 0.2300 -0.9126 0.3379
vn 0.0000 -1.0000 -0.0000
vn 0.0622 0.9587 0.2774
vn -0.0003 0.7811 0.6244
vn 0.2300 0.9126 0.3379
vn 0.0000 1.0000 0.0000
vn 0.0000 0.0000 1.0000
vn 0.0007 0.0000 1.0000
vn -1.0000 0.0000 0.0000
vn 0.0008 0.0000 -1.0000
vn 1.0000 0.0000 0.0000
vn 0.0000 0.0000 -1.0000
vn 0.4233 0.0000 0.9060
vn 0.1064 0.0000 -0.9943
vn 0.4191 -0.0000 -0.9079
vn 0.1000 -0.0000 0.9950
vn -0.0004 0.7737 -0.6336
vn 0.0663 0.9570 -0.2823
vn -0.0004 -0.7737 -0.6336
vn 0.0663 -0.9570 -0.2823
vn 0.3823 0.0000 -0.9241
vn 0.1733 0.9730 -0.1525
vn 0.1733 -0.9730 -0.1525
usemtl None
s 1
f 1/1/1 2/2/1 3/3/1 4/4/1
f 1/1/2 5/5/2 6/6/2 2/2/2
f 7/7/3 8/8/3 6/6/3 5/5/3
f 9/9/4 10/10/4 11/11/4 12/12/4
f 3/3/4 13/13/4 14/14/4 15/15/4
f 11/11/4 16/16/4 17/17/4 12/12/4
f 18/18/5 19/19/5 20/20/5 21/21/5
f 18/18/6 21/21/6 22/22/6 23/23/6
f 24/24/7 23/23/7 22/22/7 25/25/7
f 26/26/8 27/27/8 28/28/8 29/29/8
f 20/20/8 30/30/8 31/31/8 32/32/8
f 28/28/8 27/27/8 33/33/8 34/34/8
f 14/14/9 13/13/9 32/32/9 31/31/9
f 2/2/10 6/6/10 22/22/10 21/21/10
f 15/15/11 14/14/11 31/31/11 30/30/11
f 35/35/12 36/36/12 37/37/12 38/38/12
f 13/13/13 3/3/13 20/20/13 32/32/13
f 39/39/11 15/15/11 30/30/11 40/40/11
f 17/17/14 16/16/14 34/34/14 33/33/14
f 6/6/15 8/8/15 25/25/15 22/22/15
f 36/36/16 12/12/16 27/27/16 37/37/16
f 12/12/13 17/17/13 33/33/13 27/27/13
f 7/7/17 35/35/17 38/38/17 24/24/17
f 16/16/11 11/11/11 28/28/11 34/34/11
f 3/3/18 2/2/18 21/21/18 20/20/18
f 11/11/11 10/10/11 29/29/11 28/28/11
f 19/19/8 26/26/8 29/29/8 40/40/8
f 37/37/19 41/41/19 42/42/19 38/38/19
f 37/37/20 27/27/20 26/26/20 41/41/20
f 4/4/4 39/39/4 10/10/4 9/9/4
f 36/36/21 35/35/21 43/43/21 44/44/21
f 36/36/22 44/44/22 9/9/22 12/12/22
f 3/3/4 15/15/4 39/39/4 4/4/4
f 20/20/8 19/19/8 40/40/8 30/30/8
f 8/8/23 7/7/23 24/24/23 25/25/23
f 10/10/11 39/39/11 40/40/11 29/29/11
f 38/38/24 42/42/24 23/23/24 24/24/24
f 41/41/8 18/18/8 23/23/8 42/42/8
f 41/41/8 26/26/8 19/19/8 18/18/8
f 35/35/25 7/7/25 5/5/25 43/43/25
f 44/44/4 43/43/4 5/5/4 1/1/4
f 44/44/4 1/1/4 4/4/4 9/9/4
o Cylinder
v 2.000000 -0.510973 -0.073087
v 4.820092 -0.510973 -0.073086
v 4.820092 -0.506162 0.037710
v 2.000000 -0.506161 0.037710
v 4.820092 -0.491912 0.144249
v 2.000000 -0.491912 0.144249
v 4.820092 -0.468772 0.242436
v 2.000000 -0.468772 0.242436
v 4.820092 -0.437632 0.328497
v 2.000000 -0.437631 0.328497
v 4.820092 -0.399686 0.399126
v 2.000000 -0.399686 0.399126
v 4.820092 -0.356395 0.451608
v 2.000000 -0.356395 0.451608
v 4.820092 -0.309421 0.483926
v 2.000000 -0.309421 0.483926
v 4.820092 -0.260569 0.494838
v 2.000000 -0.260569 0.494838
v 4.820092 -0.211718 0.483926
v 2.000000 -0.211718 0.483926
v 4.820092 -0.164744 0.451608
v 2.000000 -0.164744 0.451608
v 4.820092 -0.121453 0.399126
v 2.000000 -0.121453 0.399126
v 4.820092 -0.083507 0.328497
v 2.000000 -0.083507 0.328497
v 4.820092 -0.052366 0.242436
v 2.000000 -0.052366 0.242436
v 4.820092 -0.029227 0.144249
v 2.000000 -0.029227 0.144249
v 4.820092 -0.014977 0.037710
v 2.000000 -0.014977 0.037710
v 4.820092 -0.010166 -0.073087
v 2.000000 -0.010166 -0.073087
v 4.820092 -0.014977 -0.183883
v 2.000000 -0.014977 -0.183883
v 4.820092 -0.029227 -0.290422
v 2.000000 -0.029227 -0.290422
v 4.820092 -0.052366 -0.388609
v 2.000000 -0.052366 -0.388609
v 4.820092 -0.083507 -0.474670
v 2.000000 -0.083507 -0.474670
v 4.820092 -0.121453 -0.545299
v 2.000000 -0.121453 -0.545299
v 4.820092 -0.164744 -0.597781
v 2.000000 -0.164744 -0.597781
v 4.820092 -0.211718 -0.630099
v 2.000000 -0.211718 -0.630099
v 4.820092 -0.260569 -0.641011
v 2.000000 -0.260569 -0.641012
v 4.820092 -0.309421 -0.630099
v 2.000000 -0.309421 -0.630099
v 4.820092 -0.356395 -0.597781
v 2.000000 -0.356395 -0.597781
v 4.820092 -0.399686 -0.545299
v 2.000000 -0.399686 -0.545299
v 4.820092 -0.437631 -0.474670
v 2.000000 -0.437631 -0.474670
v 4.820092 -0.468772 -0.388609
v 2.000000 -0.468772 -0.388609
v 4.820092 -0.491912 -0.290422
v 2.000000 -0.491912 -0.290422
v 4.820092 -0.506162 -0.183883
v 2.000000 -0.506162 -0.183883
vt 1.000000 0.500000
vt 1.000000 1.000000
vt 0.968750 1.000000
vt 0.968750 0.500000
vt 0.937500 1.000000
vt 0.937500 0.500000
vt 0.906250 1.000000
vt 0.906250 0.500000
vt 0.875000 1.000000
vt 0.875000 0.500000
vt 0.843750 1.000000
vt 0.843750 0.500000
vt 0.812500 1.000000
vt 0.812500 0.500000
vt 0.781250 1.000000
vt 0.781250 0.500000
vt 0.750000 1.000000
vt 0.750000 0.500000
vt 0.718750 1.000000
vt 0.718750 0.500000
vt 0.687500 1.000000
vt 0.687500 0.500000
vt 0.656250 1.000000
vt 0.656250 0.500000
vt 0.625000 1.000000
vt 0.625000 0.500000
vt 0.593750 1.000000
vt 0.593750 0.500000
vt 0.562500 1.000000
vt 0.562500 0.500000
vt 0.531250 1.000000
vt 0.531250 0.500000
vt 0.500000 1.000000
vt 0.500000 0.500000
vt 0.468750 1.000000
vt 0.468750 0.500000
vt 0.437500 1.000000
vt 0.437500 0.500000
vt 0.406250 1.000000
vt 0.406250 0.500000
vt 0.375000 1.000000
vt 0.375000 0.500000
vt 0.343750 1.000000
vt 0.343750 0.500000
vt 0.312500 1.000000
vt 0.312500 0.500000
vt 0.281250 1.000000
vt 0.281250 0.500000
vt 0.250000 1.000000
vt 0.250000 0.500000
vt 0.218750 1.000000
vt 0.218750 0.500000
vt 0.187500 1.000000
vt 0.187500 0.500000
vt 0.156250 1.000000
vt 0.156250 0.500000
vt 0.125000 1.000000
vt 0.125000 0.500000
vt 0.093750 1.000000
vt 0.093750 0.500000
vt 0.062500 1.000000
vt 0.062500 0.500000
vt 0.296822 0.485388
vt 0.250000 0.490000
vt 0.203178 0.485388
vt 0.158156 0.471731
vt 0.116663 0.449553
vt 0.080294 0.419706
vt 0.050447 0.383337
vt 0.028269 0.341844
vt 0.014612 0.296822
vt 0.010000 0.250000
vt 0.014612 0.203178
vt 0.028269 0.158156
vt 0.050447 0.116663
vt 0.080294 0.080294
vt 0.116663 0.050447
vt 0.158156 0.028269
vt 0.203178 0.014612
vt 0.250000 0.010000
vt 0.296822 0.014612
vt 0.341844 0.028269
vt 0.383337 0.050447
vt 0.419706 0.080294
vt 0.449553 0.116663
vt 0.471731 0.158156
vt 0.485388 0.203178
vt 0.490000 0.250000
vt 0.485388 0.296822
vt 0.471731 0.341844
vt 0.449553 0.383337
vt 0.419706 0.419706
vt 0.383337 0.449553
vt 0.341844 0.471731
vt 0.031250 1.000000
vt 0.031250 0.500000
vt 0.000000 1.000000
vt 0.000000 0.500000
vt 0.750000 0.490000
vt 0.796822 0.485388
vt 0.841844 0.471731
vt 0.883337 0.449553
vt 0.919706 0.419706
vt 0.949553 0.383337
vt 0.971731 0.341844
vt 0.985388 0.296822
vt 0.990000 0.250000
vt 0.985388 0.203178
vt 0.971731 0.158156
vt 0.949553 0.116663
vt 0.919706 0.080294
vt 0.883337 0.050447
vt 0.841844 0.028269
vt 0.796822 0.014612
vt 0.750000 0.010000
vt 0.703178 0.014612
vt 0.658156 0.028269
vt 0.616663 0.050447
vt 0.580294 0.080294
vt 0.550447 0.116663
vt 0.528269 0.158156
vt 0.514612 0.203178
vt 0.510000 0.250000
vt 0.514612 0.296822
vt 0.528269 0.341844
vt 0.550447 0.383337
vt 0.580294 0.419706
vt 0.616663 0.449553
vt 0.658156 0.471731
vt 0.703178 0.485388
vn -0.0000 -0.9991 0.0434
vn -0.0000 -0.9912 0.1326
vn 0.0000 -0.9733 0.2294
vn -0.0000 -0.9403 0.3403
vn -0.0000 -0.8809 0.4733
vn 0.0000 -0.7714 0.6363
vn 0.0000 -0.5668 0.8239
vn 0.0000 -0.2180 0.9759
vn 0.0000 0.2180 0.9759
vn 0.0000 0.5668 0.8239
vn 0.0000 0.7714 0.6363
vn 0.0000 0.8809 0.4733
vn 0.0000 0.9403 0.3403
vn 0.0000 0.9733 0.2294
vn 0.0000 0.9912 0.1326
vn 0.0000 0.9991 0.0434
vn 0.0000 0.9991 -0.0434
vn 0.0000 0.9912 -0.1326
vn 0.0000 0.9733 -0.2294
vn 0.0000 0.9403 -0.3403
vn 0.0000 0.8809 -0.4733
vn 0.0000 0.7714 -0.6363
vn 0.0000 0.5668 -0.8238
vn 0.0000 0.2180 -0.9759
vn 0.0000 -0.2180 -0.9759
vn 0.0000 -0.5668 -0.8239
vn 0.0000 -0.7714 -0.6363
vn 0.0000 -0.8809 -0.4733
vn 0.0000 -0.9403 -0.3403
vn 0.0000 -0.9733 -0.2294
vn 1.0000 0.0000 0.0000
vn 0.0000 -0.9912 -0.1326
vn 0.0000 -0.9991 -0.0434
vn -1.0000 -0.0000 0.0000
usemtl None
s 1
f 45/45/26 46/46/26 47/47/26 48/48/26
f 48/48/27 47/47/27 49/49/27 50/50/27
f 50/50/28 49/49/28 51/51/28 52/52/28
f 52/52/29 51/51/29 53/53/29 54/54/29
f 54/54/30 53/53/30 55/55/30 56/56/30
f 56/56/31 55/55/31 57/57/31 58/58/31
f 58/58/32 57/57/32 59/59/32 60/60/32
f 60/60/33 59/59/33 61/61/33 62/62/33
f 62/62/34 61/61/34 63/63/34 64/64/34
f 64/64/35 63/63/35 65/65/35 66/66/35
f 66/66/36 65/65/36 67/67/36 68/68/36
f 68/68/37 67/67/37 69/69/37 70/70/37
f 70/70/38 69/69/38 71/71/38 72/72/38
f 72/72/39 71/71/39 73/73/39 74/74/39
f 74/74/40 73/73/40 75/75/40 76/76/40
f 76/76/41 75/75/41 77/77/41 78/78/41
f 78/78/42 77/77/42 79/79/42 80/80/42
f 80/80/43 79/79/43 81/81/43 82/82/43
f 82/82/44 81/81/44 83/83/44 84/84/44
f 84/84/45 83/83/45 85/85/45 86/86/45
f 86/86/46 85/85/46 87/87/46 88/88/46
f 88/88/47 87/87/47 89/89/47 90/90/47
f 90/90/48 89/89/48 91/91/48 92/92/48
f 92/92/49 91/91/49 93/93/49 94/94/49
f 94/94/50 93/93/50 95/95/50 96/96/50
f 96/96/51 95/95/51 97/97/51 98/98/51
f 98/98/52 97/97/52 99/99/52 100/100/52
f 100/100/53 99/99/53 101/101/53 102/102/53
f 102/102/54 101/101/54 103/103/54 104/104/54
f 104/104/55 103/103/55 105/105/55 106/106/55
f 47/107/56 46/108/56 107/109/56 105/110/56 103/111/56 101/112/56 99/113/56 97/114/56 95/115/56 93/116/56 91/117/56 89/118/56 87/119/56 85/120/56 83/121/56 81/122/56 79/123/56 77/124/56 75/125/56 73/126/56 71/127/56 69/128/56 67/129/56 65/130/56 63/131/56 61/132/56 59/133/56 57/134/56 55/135/56 53/136/56 51/137/56 49/138/56
f 106/106/57 105/105/57 107/139/57 108/140/57
f 108/140/58 107/139/58 46/141/58 45/142/58
f 45/143/59 48/144/59 50/145/59 52/146/59 54/147/59 56/148/59 58/149/59 60/150/59 62/151/59 64/152/59 66/153/59 68/154/59 70/155/59 72/156/59 74/157/59 76/158/59 78/159/59 80/160/59 82/161/59 84/162/59 86/163/59 88/164/59 90/165/59 92/166/59 94/167/59 96/168/59 98/169/59 100/170/59 102/171/59 104/172/59 106/173/59 108/174/59
o Cone
v 1.263732 -0.000000 0.449782
v 1.263732 0.199644 -0.113616
v 1.155925 0.000000 -0.395315
v 1.371539 0.000000 -0.395315
vt 0.250000 0.490000
vt 0.250000 0.250000
vt 0.457846 0.130000
vt 0.750000 0.490000
vt 0.957846 0.130000
vt 0.542154 0.130000
vt 0.042154 0.130000
vn -0.9342 0.3363 0.1192
vn 0.0000 -1.0000 -0.0000
vn 0.0000 0.8159 -0.5782
vn 0.9342 0.3363 0.1192
usemtl None
s 1
f 109/175/60 110/176/60 111/177/60
f 109/178/61 111/179/61 112/180/61
f 111/177/62 110/176/62 112/181/62
f 112/181/63 110/176/63 109/175/63
